<?xml version="1.0" encoding="UTF-8"?>
<svg id="Layer_2" data-name="Layer 2" xmlns="http://www.w3.org/2000/svg" viewBox="0 0 299.99 236.26">
  <defs>
    <style>
      .cls-1 {
        fill: #262626;
        stroke-width: 0px;
      }
    </style>
  </defs>
  <g id="Layer_1-2" data-name="Layer 1">
    <g>
      <path class="cls-1" d="M185.5,221.25h0c-2.34,0-4.67-.33-6.92-.98l-10.39-3c-11.84-3.42-24.58-3.42-36.42,0l-10.39,3c-2.25.65-4.58.98-6.92.98-4.71,0-9.31-1.33-13.3-3.84l-9.13-5.74c-8.44-5.31-13.47-14.43-13.47-24.4v-11.18c0-9.01,6.42-16.81,15.26-18.54l5.95-1.17c2.95-.58,5.68-2.13,7.69-4.37l5.36-5.99c5.05-5.63,12.29-8.87,19.85-8.87h34.59c7.57,0,14.8,3.23,19.85,8.87l5.36,5.98c2.01,2.24,4.74,3.79,7.69,4.37l5.95,1.17c8.84,1.73,15.26,9.53,15.26,18.54v11.18c0,9.97-5.04,19.09-13.47,24.4l-9.13,5.74c-3.99,2.51-8.59,3.84-13.3,3.84h.03ZM149.99,207.5c6.84,0,13.63.96,20.2,2.86l10.39,3c1.6.46,3.26.7,4.92.7,3.35,0,6.62-.94,9.46-2.73l9.13-5.74c6.33-3.98,10.11-10.82,10.11-18.3v-11.18c0-5.58-3.97-10.4-9.45-11.48l-5.95-1.17c-4.48-.88-8.62-3.23-11.67-6.63l-5.36-5.99c-3.69-4.11-8.97-6.47-14.49-6.47h-34.59c-5.52,0-10.8,2.36-14.49,6.47l-5.36,5.99c-3.05,3.4-7.19,5.75-11.67,6.63l-5.95,1.17c-5.47,1.07-9.45,5.9-9.45,11.48v11.18c0,7.48,3.78,14.32,10.11,18.3l9.13,5.74c2.84,1.78,6.11,2.73,9.46,2.73,1.67,0,3.32-.23,4.92-.7l10.39-3c6.57-1.9,13.37-2.86,20.2-2.86h0Z"/>
      <path class="cls-1" d="M132.64,195.49c-.47,0-.94-.09-1.4-.29-1.83-.77-2.69-2.89-1.91-4.72.43-1.01.64-2.08.64-3.18,0-4.51-3.67-8.18-8.18-8.18-3.04,0-5.82,1.67-7.24,4.37-.93,1.76-3.11,2.43-4.87,1.5s-2.43-3.11-1.5-4.87c2.67-5.06,7.89-8.2,13.61-8.2,8.48,0,15.38,6.9,15.38,15.38,0,2.08-.41,4.09-1.21,5.99-.58,1.37-1.91,2.2-3.32,2.2h0Z"/>
      <path class="cls-1" d="M167.34,195.49c-1.4,0-2.74-.83-3.32-2.2-.8-1.9-1.21-3.91-1.21-5.99,0-8.48,6.9-15.38,15.38-15.38,5.72,0,10.93,3.14,13.61,8.2.93,1.76.26,3.94-1.5,4.87s-3.94.26-4.87-1.5c-1.42-2.69-4.2-4.37-7.24-4.37-4.51,0-8.18,3.67-8.18,8.18,0,1.11.22,2.18.64,3.18.78,1.83-.08,3.94-1.91,4.72-.46.19-.93.29-1.4.29h0Z"/>
      <path class="cls-1" d="M185.5,228.45h0c-3.02,0-6.02-.42-8.92-1.26l-10.39-3c-5.24-1.51-10.7-2.28-16.21-2.28s-10.97.77-16.21,2.28l-10.39,3c-2.9.84-5.9,1.26-8.92,1.26-1.09,0-2.18-.06-3.25-.17,3.42,4.82,9.04,7.98,15.38,7.98h46.77c6.35,0,11.96-3.16,15.38-7.98-1.08.11-2.16.17-3.25.17h.01Z"/>
      <path class="cls-1" d="M94.4,44.93h-.02c-1.17,0-2.26-.57-2.94-1.52l-15.97-22.52c-3.07-4.33-3.39-10.13-.82-14.78,1.61-2.9,4.38-5.01,7.61-5.78.91-.22,1.84-.33,2.77-.33,2.37,0,4.66.7,6.63,2.02l24.45,16.46c1.25.84,1.84,2.38,1.49,3.84-.22.89-.77,1.67-1.54,2.17-7.42,4.82-13.86,11.31-18.64,18.77-.66,1.03-1.8,1.66-3.03,1.66h0ZM85.03,7.2c-.37,0-.73.04-1.09.13-1.27.3-2.36,1.13-2.99,2.28-1.24,2.24-1.09,5.03.39,7.12l13.02,18.36c3.83-5.08,8.37-9.66,13.41-13.53l-20.13-13.55c-.77-.52-1.68-.8-2.61-.8h0Z"/>
      <path class="cls-1" d="M205.6,44.93h-.02c-1.23,0-2.37-.63-3.03-1.66-4.78-7.46-11.22-13.95-18.64-18.77-.77-.5-1.32-1.27-1.54-2.16-.36-1.47.23-3.01,1.48-3.85l24.45-16.46c1.97-1.32,4.26-2.02,6.63-2.02.93,0,1.87.11,2.77.33,3.22.77,6,2.88,7.61,5.78,2.58,4.65,2.26,10.45-.82,14.78l-15.97,22.52c-.68.95-1.77,1.52-2.94,1.52h.02ZM192.21,21.55c5.04,3.87,9.58,8.45,13.41,13.53l13.02-18.36c1.48-2.09,1.64-4.88.39-7.12-.63-1.14-1.73-1.97-2.99-2.27-1.26-.3-2.62-.06-3.7.67l-20.13,13.55Z"/>
      <path class="cls-1" d="M295.06,32.38c-30.15-11.9-53.37-10.47-76.2,10.52,3.44,6.95,5.81,14.4,7,22.12.49,3.14,2.25,5.99,4.85,7.81,6.1,4.3,9.96,11.07,10.61,18.44,9.17,2.26,19.14.84,27.55-4.53,18.64-11.9,27.52-24.6,31.02-45.87.59-3.62-1.42-7.16-4.83-8.5h0Z"/>
      <path class="cls-1" d="M226.56,78.72c-4.19-2.95-7.04-7.54-7.82-12.6-1.97-12.71-7.46-24.63-15.87-34.47h0c-13.25-15.49-32.53-24.38-52.88-24.38s-39.62,8.88-52.87,24.38h0c-8.42,9.84-13.91,21.76-15.87,34.47-.78,5.06-3.63,9.65-7.82,12.6-4.8,3.38-7.66,8.9-7.66,14.77v13.57c0,8.09,3.98,15.64,10.66,20.22,5.11,3.51,8.26,9.07,8.64,15.26.2,3.26.41,6.69.63,10.29,2.1-1.07,4.37-1.87,6.78-2.34l5.95-1.16c1.42-.28,2.74-1.03,3.71-2.11l5.36-5.98c4.49-5.01,10.35-8.52,16.76-10.18.02-.13.05-.27.07-.4.09-.58.18-1.15.27-1.73.12-.77.24-1.55.34-2.32.08-.58.16-1.15.23-1.73.1-.76.2-1.52.28-2.28.07-.57.13-1.14.19-1.71.08-.76.16-1.51.23-2.26.05-.56.11-1.11.15-1.67.06-.76.12-1.51.18-2.27.04-.54.08-1.07.11-1.61.05-.78.09-1.55.12-2.32.02-.5.05-1.01.07-1.5.03-.82.05-1.64.07-2.46,0-.44.02-.87.03-1.31,0-.99,0-1.98,0-2.96v-.76c-.02-1.24-.05-2.48-.1-3.7,0-.23-.03-.46-.04-.69-.04-.98-.09-1.97-.16-2.94-.03-.41-.06-.81-.09-1.22-.06-.79-.12-1.58-.19-2.36-.04-.46-.1-.91-.14-1.37-.08-.72-.15-1.45-.24-2.17-.06-.48-.12-.95-.19-1.43-.09-.69-.19-1.38-.29-2.07-.07-.48-.15-.96-.23-1.44-.11-.67-.23-1.35-.35-2.01-.09-.48-.18-.95-.27-1.43-.13-.67-.27-1.33-.41-1.99-.1-.47-.2-.94-.31-1.4-.15-.67-.31-1.33-.47-1.99-.11-.45-.22-.9-.34-1.35-.18-.68-.36-1.36-.55-2.03-.12-.42-.23-.84-.35-1.26-.21-.73-.44-1.45-.66-2.18-.11-.36-.22-.71-.33-1.07-.31-.95-.63-1.9-.97-2.84-.04-.12-.08-.24-.12-.36-.38-1.06-.78-2.11-1.2-3.16-.12-.3-.25-.6-.37-.9-.3-.74-.6-1.47-.92-2.2-.17-.39-.35-.77-.52-1.16-.28-.64-.57-1.27-.86-1.9-.2-.42-.4-.83-.6-1.24-.29-.59-.58-1.19-.88-1.78-.22-.43-.44-.85-.66-1.27-.3-.57-.61-1.14-.92-1.71-.23-.43-.47-.85-.71-1.28-.32-.56-.64-1.12-.97-1.67l-.75-1.26c-.34-.56-.68-1.11-1.03-1.66-.26-.41-.52-.82-.78-1.23-.36-.56-.74-1.11-1.11-1.67-.26-.39-.53-.78-.8-1.17-.4-.58-.81-1.15-1.23-1.73-.26-.36-.51-.72-.77-1.07-.06-.08-.12-.17-.18-.25,11.78-12.56,28.19-19.7,45.47-19.7s33.69,7.15,45.47,19.7c-.06.08-.12.17-.18.25-.26.35-.51.71-.77,1.07-.41.57-.83,1.15-1.23,1.73-.27.39-.53.78-.79,1.17-.38.56-.75,1.11-1.12,1.68-.26.4-.52.81-.78,1.22-.35.55-.7,1.11-1.04,1.67-.25.42-.5.83-.75,1.25-.33.56-.65,1.12-.97,1.68-.24.42-.48.84-.71,1.27-.31.57-.62,1.15-.92,1.72l-.66,1.26c-.3.6-.6,1.19-.89,1.79-.2.41-.4.82-.6,1.23-.3.64-.59,1.28-.88,1.93-.17.38-.34.76-.51,1.14-.32.75-.63,1.5-.94,2.25-.12.29-.24.57-.35.86-.42,1.05-.82,2.11-1.2,3.17-.03.1-.06.19-.1.29-.34.96-.68,1.93-.99,2.91-.11.34-.21.69-.32,1.04-.23.73-.46,1.47-.67,2.2-.12.41-.23.83-.35,1.24-.19.68-.38,1.36-.56,2.05-.11.44-.22.89-.33,1.34-.16.66-.32,1.33-.48,2-.1.46-.2.92-.3,1.39-.14.67-.28,1.33-.41,2l-.27,1.41c-.12.67-.24,1.35-.35,2.03-.08.47-.15.95-.23,1.42-.11.69-.2,1.39-.3,2.09-.06.47-.13.93-.19,1.41-.09.73-.17,1.46-.25,2.19-.05.45-.1.89-.14,1.34-.08.8-.14,1.6-.2,2.4-.03.39-.07.79-.09,1.18-.07,1-.12,2-.16,3.01,0,.21-.02.41-.03.62-.05,1.23-.08,2.47-.1,3.71v.7c0,1-.01,2.01,0,3.02,0,.42.02.85.03,1.27.02.83.04,1.66.07,2.5.02.49.04.98.07,1.47.04.78.08,1.56.12,2.35.03.52.07,1.05.11,1.57.05.76.11,1.53.18,2.3.05.54.1,1.09.15,1.63.07.76.15,1.53.23,2.3.06.55.12,1.11.19,1.67.09.77.19,1.55.29,2.32.07.56.15,1.12.23,1.68.11.79.23,1.58.35,2.38.09.56.17,1.11.26,1.67.02.14.05.28.07.42,6.41,1.66,12.27,5.16,16.76,10.18l5.36,5.99c.97,1.08,2.29,1.83,3.71,2.11l5.95,1.16c2.4.47,4.67,1.27,6.77,2.34.22-3.6.43-7.03.63-10.29.38-6.19,3.53-11.76,8.65-15.27,6.67-4.57,10.65-12.13,10.65-20.22v-13.57c0-5.87-2.87-11.39-7.66-14.77l.02.04ZM95.68,114.97c-3.36.93-7.14-2.14-8.44-6.85s.37-9.28,3.73-10.21c3.36-.93,7.14,2.14,8.44,6.85s-.37,9.28-3.73,10.21ZM212.74,108.12c-1.3,4.71-5.08,7.78-8.44,6.85-3.36-.93-5.03-5.5-3.73-10.21s5.08-7.78,8.44-6.85c3.36.93,5.03,5.5,3.73,10.21Z"/>
      <path class="cls-1" d="M69.28,72.83c2.6-1.83,4.36-4.68,4.85-7.81,1.19-7.72,3.57-15.17,7.01-22.12C58.3,21.91,35.09,20.48,4.93,32.38,1.52,33.72-.49,37.27.1,40.88c3.5,21.27,12.38,33.97,31.02,45.87,8.41,5.37,18.38,6.79,27.55,4.53.65-7.37,4.51-14.14,10.61-18.44h0Z"/>
    </g>
  </g>
</svg>